PathFileType	4	(X/Y/Z)	0_coords_data.trc
DataRate	CameraRate	NumFrames	NumMarkers	Units	OrigDataRate	OrigDataStartFrame	OrigNumFrames
30.0	30.0	7	21	m	30.0	62	72
Frame#	Time	THUMB_TIP	THUMB_IP	THUMB_MCP	THUMB_CMC	INDEX_TIP	INDEX_DIP	INDEX_PIP	INDEX_MCP	MIDDLE_TIP	MIDDLE_DIP	MIDDLE_PIP	MIDDLE_MCP	RING_TIP	RING_DIP	RING_PIP	RING_MCP	PINKY_TIP	PINKY_DIP	PINKY_PIP	PINKY_MCP	WRIST
X1	Y1	Z1	X2	Y2	Z2	X3	Y3	Z3	X4	Y4	Z4	X5	Y5	Z5	X6	Y6	Z6	X7	Y7	Z7	X8	Y8	Z8	X9	Y9	Z9	X10	Y10	Z10	X11	Y11	Z11	X12	Y12	Z12	X13	Y13	Z13	X14	Y14	Z14	X15	Y15	Z15	X16	Y16	Z16	X17	Y17	Z17	X18	Y18	Z18	X19	Y19	Z19	X20	Y20	Z20	X21	Y21	Z21
61	2.033333333333333	0.030613100051879883	-0.08621690368652343	1.0214600219726562	0.01529860019683838	-0.06405699920654297	1.03168994140625	-0.008505769729614258	-0.051413898468017576	1.0504200439453124	-0.018104700088500975	-0.01598610019683838	1.058219970703125	0.01754330062866211	-0.06633499908447266	0.9230150146484375	0.004567399978637695	-0.05984130096435547	0.9424509887695313	-0.00805821990966797	-0.05258869934082031	0.9638300170898437	-0.02347599983215332	-0.03969430160522461	0.999041015625	0.030346799850463867	-0.028202100753784178	0.9046290283203124	0.015624500274658204	-0.025263999938964842	0.9265260009765625	-0.003083549976348877	-0.021541099548339843	0.9520969848632812	-0.023223100662231447	-0.01585540008544922	0.9894869995117187	0.0334827995300293	0.006427320003509521	0.9065159912109375	0.017748199462890624	0.007630970001220703	0.9266790161132813	-0.0009136630296707151	0.007948880195617675	0.95027197265625	-0.016606300354003907	0.007235020160675049	0.98822900390625	0.03330319976806641	0.04369229888916016	0.9369000244140625	0.01743120002746582	0.04242530059814453	0.9499739990234375	0.001782209992408752	0.03936909866333008	0.9645239868164063	-0.010580300331115722	0.03013680076599121	0.9927050170898437	-0.04824029922485352	0.01348390007019043	1.074989990234375
62	2.066666666666667	0.029797100067138673	-0.08645050048828125	1.0208300170898437	0.014819199562072755	-0.06427330017089844	1.0313299560546876	-0.008823710441589356	-0.051448001861572265	1.0501500244140625	-0.017894500732421874	-0.01596300029754639	1.0579599609375	0.01833690071105957	-0.06563510131835938	0.923364990234375	0.005015220165252685	-0.05938330078125	0.9425440063476562	-0.007863800048828124	-0.052293201446533204	0.9637999877929687	-0.023611099243164062	-0.03957540130615234	0.9989520263671875	0.030405799865722657	-0.02770170021057129	0.9045499877929688	0.015589699745178223	-0.024874799728393553	0.92639697265625	-0.003138590097427368	-0.02114310073852539	0.9520050048828125	-0.02340060043334961	-0.015538499832153321	0.9895250244140625	0.03301219940185547	0.006999229907989502	0.9062059936523438	0.01735129928588867	0.008093409538269043	0.9264639892578125	-0.0013278000354766842	0.008344409942626953	0.9502529907226562	-0.01700709915161133	0.007422229766845703	0.9882739868164062	0.03272299957275391	0.04421099853515625	0.936677978515625	0.016926799774169922	0.04293310165405274	0.9497620239257812	0.0013428399562835688	0.03976200103759766	0.964344970703125	-0.011034500122070313	0.030385000228881836	0.9925040283203125	-0.04821849822998047	0.013576299667358398	1.0749300537109374
63	2.1	0.030107000350952148	-0.08602999877929687	1.0204199829101563	0.015165599822998047	-0.06388079833984375	1.03081005859375	-0.008566670417785645	-0.05117050170898438	1.04993994140625	-0.01807119941711426	-0.0157253999710083	1.058219970703125	0.01797450065612793	-0.06535089874267579	0.9230789794921875	0.0046591200828552245	-0.05911790084838867	0.9423670043945312	-0.00826259994506836	-0.052096900939941404	0.9636890258789063	-0.023709699630737303	-0.03936529922485352	0.9988400268554688	0.029680700302124025	-0.02734309959411621	0.9042440185546875	0.014937800407409668	-0.02460059928894043	0.9261510009765626	-0.0036684999465942383	-0.02097489929199219	0.9518930053710938	-0.023677700042724608	-0.015337100028991699	0.9895650024414062	0.03235589981079102	0.007625490188598633	0.9059180297851562	0.016798099517822265	0.008563260078430175	0.9262150268554687	-0.001722239971160888	0.008674860000610352	0.9499829711914063	-0.017578899383544924	0.007645100116729736	0.9880910034179687	0.031872800827026364	0.04501890182495117	0.936333984375	0.016176599502563477	0.04350630187988281	0.9495609741210937	0.000721154987812042	0.040188899993896486	0.964177001953125	-0.011569100379943848	0.030579200744628908	0.9922780151367188	-0.04824829864501953	0.013500100135803222	1.0748399658203125
64	2.1333333333333333	0.03019029998779297	-0.08557289886474609	1.0201300048828126	0.015103400230407715	-0.0635432014465332	1.0305999755859374	-0.008633879661560059	-0.050984298706054684	1.0498399658203126	-0.018099599838256836	-0.015619999885559082	1.05806005859375	0.017645099639892577	-0.06498419952392578	0.9230919799804688	0.00431141996383667	-0.05881259918212891	0.9422650146484375	-0.00854481029510498	-0.051890998840332034	0.9633099975585937	-0.024045499801635742	-0.03925320053100586	0.9985260009765625	0.029153799057006834	-0.027077199935913086	0.9039359741210937	0.014501399993896484	-0.02430940055847168	0.925927001953125	-0.004033420085906982	-0.0208085994720459	0.9515260009765625	-0.023918100357055664	-0.01527299976348877	0.98918701171875	0.03184329986572266	0.008153189659118652	0.9056929931640625	0.016326799392700195	0.008988889694213867	0.9260800170898438	-0.002378329992294311	0.009062990188598633	0.9497880249023437	-0.017959199905395507	0.007791349887847901	0.9879140014648438	0.03134079933166504	0.04540539932250977	0.9362169799804687	0.015550299644470215	0.0438661003112793	0.9493920288085937	0.00010397800058126401	0.04049330139160156	0.9640750122070313	-0.012111300468444825	0.03076799964904785	0.9921270141601563	-0.04845140075683594	0.01351609992980957	1.0748599853515626
65	2.1666666666666665	0.029399599075317383	-0.08596939849853516	1.020010009765625	0.01436769962310791	-0.06387530136108398	1.030550048828125	-0.009236980438232421	-0.051126300811767576	1.0496800537109374	-0.01847879981994629	-0.01569379997253418	1.0575400390625	0.017579200744628907	-0.06508519744873047	0.9231610107421875	0.004191249847412109	-0.05886460113525391	0.9421430053710937	-0.008833820343017579	-0.05187960052490234	0.9634099731445313	-0.02428879928588867	-0.03932699966430664	0.9982239990234375	0.029302799224853515	-0.027176000595092772	0.9041079711914063	0.014477399826049805	-0.024438499450683594	0.9258720092773437	-0.004237760066986084	-0.02084819984436035	0.9515430297851563	-0.024194999694824217	-0.015339400291442871	0.9891820068359375	0.031937400817871095	0.008091360092163087	0.9056799926757813	0.01636899948120117	0.008931090354919433	0.92610498046875	-0.002275530099868774	0.009018959999084473	0.9496929931640625	-0.01827199935913086	0.007782869815826416	0.9879509887695312	0.03134289932250976	0.04546360015869141	0.9361729736328125	0.015620599746704102	0.04395059967041016	0.9494390258789063	3.9965599775314e-05	0.040557701110839846	0.9640479736328125	-0.01214780044555664	0.030688299179077148	0.9920020141601562	-0.04873040008544922	0.01360200023651123	1.07475
66	2.2	0.029166200637817382	-0.08600330352783203	1.0195900268554687	0.014321000099182128	-0.06389569854736328	1.030280029296875	-0.00921498966217041	-0.051137901306152346	1.04956005859375	-0.018521900177001952	-0.015732799530029297	1.0578800048828125	0.01771689987182617	-0.06514910125732422	0.9232750244140625	0.004212709903717041	-0.0589718017578125	0.9421890258789063	-0.008837180137634277	-0.05205009841918945	0.963208984375	-0.024464000701904298	-0.03939229965209961	0.9984710083007813	0.028925199508666993	-0.027286699295043945	0.9039450073242188	0.014194000244140624	-0.024552799224853514	0.9257139892578125	-0.004488110065460205	-0.020958999633789062	0.9512860107421875	-0.02453660011291504	-0.015422800064086913	0.9890859985351562	0.0314468994140625	0.0081528902053833	0.9054600219726563	0.01592549991607666	0.00899110984802246	0.9258790283203125	-0.0026256599426269533	0.008999449729919434	0.9494869995117188	-0.018544200897216798	0.0077379999160766605	0.9878560180664062	0.0308572998046875	0.045947498321533206	0.9360390014648438	0.015090100288391113	0.04425220108032227	0.949385009765625	-0.000403048008680343	0.04076169967651367	0.9640670166015625	-0.012528300285339355	0.030743799209594726	0.9919829711914062	-0.04878680038452148	0.01354930019378662	1.0746099853515625
67	2.2333333333333334	0.0292593994140625	-0.08577670288085938	1.019030029296875	0.014315999984741212	-0.0637332000732422	1.0298499755859376	-0.009123109817504882	-0.051101699829101566	1.04931005859375	-0.01848430061340332	-0.01566469955444336	1.05768994140625	0.01806529998779297	-0.06508869934082032	0.9232059936523438	0.004366859912872314	-0.05899280166625977	0.9420469970703125	-0.008862469673156738	-0.05201530075073242	0.963344970703125	-0.02464500045776367	-0.03944200134277344	0.998406005859375	0.02879789924621582	-0.0271919002532959	0.9037739868164063	0.013970899581909179	-0.024504100799560547	0.92556201171875	-0.004675079822540283	-0.02101259994506836	0.9511380004882812	-0.024712799072265625	-0.015353500366210937	0.98902099609375	0.03104389953613281	0.008351030349731446	0.905155029296875	0.015500800132751465	0.009147720336914062	0.92556298828125	-0.0031833000183105467	0.009158900260925293	0.9492529907226562	-0.01892259979248047	0.007718850135803223	0.9877589721679687	0.030473400115966796	0.04630810165405273	0.9360120239257812	0.014746399879455566	0.04452920150756836	0.9492160034179687	-0.0008398879766464231	0.040896900177001955	0.9638880004882813	-0.012891400337219238	0.030716299057006836	0.9917940063476562	-0.04875270080566406	0.013470399856567382	1.0743900146484375
